<svg xmlns="http://www.w3.org/2000/svg" xmlns:xlink="http://www.w3.org/1999/xlink" version="1.1" width="1080" height="1080" viewBox="0 0 1080 1080" xml:space="preserve">
<desc fill="#000000">Created with Fabric.js 5.2.4</desc>
<defs fill="#000000">
</defs>
<g transform="matrix(1 0 0 1 540 540)" id="a3233936-38a6-4430-a970-87de3a33bea8">
<rect style="stroke: none; stroke-width: 1; stroke-dasharray: none; stroke-linecap: butt; stroke-dashoffset: 0; stroke-linejoin: miter; stroke-miterlimit: 4; fill:#ff0000; fill-rule: nonzero; opacity: 1; visibility: hidden;" vector-effect="non-scaling-stroke" x="-540" y="-540" rx="0" ry="0" width="1080" height="1080"/>
</g>
<g transform="matrix(1 0 0 1 540 540)" id="862192ea-0758-4223-8f6b-c48a7082a996">
</g>
<g transform="matrix(1 0 0 1 540 540)" id="005fafa6-a5c3-4312-931e-1e29d96f46d6">
<path style="stroke: rgb(0,0,0); stroke-width: 0; stroke-dasharray: none; stroke-linecap: butt; stroke-dashoffset: 0; stroke-linejoin: miter; stroke-miterlimit: 4; fill:#ff0000; fill-rule: nonzero; opacity: 1;" vector-effect="non-scaling-stroke" transform=" translate(-480, 480)" d="M 360 -360 L 360 -600 L 600 -600 L 600 -360 L 360 -360 Z M 440 -440 L 520 -440 L 520 -520 L 440 -520 L 440 -440 Z M 360 -120 L 360 -200 L 280 -200 Q 247 -200 223.5 -223.5 Q 200 -247 200 -280 L 200 -360 L 120 -360 L 120 -440 L 200 -440 L 200 -520 L 120 -520 L 120 -600 L 200 -600 L 200 -680 Q 200 -713 223.5 -736.5 Q 247 -760 280 -760 L 360 -760 L 360 -840 L 440 -840 L 440 -760 L 520 -760 L 520 -840 L 600 -840 L 600 -760 L 680 -760 Q 713 -760 736.5 -736.5 Q 760 -713 760 -680 L 760 -600 L 840 -600 L 840 -520 L 760 -520 L 760 -440 L 840 -440 L 840 -360 L 760 -360 L 760 -280 Q 760 -247 736.5 -223.5 Q 713 -200 680 -200 L 600 -200 L 600 -120 L 520 -120 L 520 -200 L 440 -200 L 440 -120 L 360 -120 Z M 680 -280 L 680 -680 L 280 -680 L 280 -280 L 680 -280 Z M 480 -480 Z" stroke-linecap="round"/>
</g>
</svg>